HIERARCHY
ROOT Hips
{
  OFFSET 107.172 60.3515 365.92
  CHANNELS 6 Xposition Yposition Zposition Zrotation Xrotation Yrotation
  JOINT LeftUpLeg
  {
    OFFSET 8.9458 -8.66707 0.101652
    CHANNELS 3 Zrotation Xrotation Yrotation
    JOINT LeftLeg
    {
      OFFSET 0 -44.4227 1.3727
      CHANNELS 3 Zrotation Xrotation Yrotation
      JOINT LeftFoot
      {
        OFFSET -0.253549 -42.0924 -1.46059
        CHANNELS 3 Zrotation Xrotation Yrotation
        JOINT LeftToes
        {
          OFFSET -0.04 -4.41509 8.4991
          CHANNELS 3 Zrotation Xrotation Yrotation
          End Site
          {
            OFFSET 0.08 -0.047448 9.77979
          }
        }
      }
    }
  }
  JOINT RightUpLeg
  {
    OFFSET -8.9458 -8.66707 0.101652
    CHANNELS 3 Zrotation Xrotation Yrotation
    JOINT RightLeg
    {
      OFFSET 0 -44.4227 1.3727
      CHANNELS 3 Zrotation Xrotation Yrotation
      JOINT RightFoot
      {
        OFFSET 0.253549 -42.0924 -1.46059
        CHANNELS 3 Zrotation Xrotation Yrotation
        JOINT RightToes
        {
          OFFSET 0.04 -4.41509 8.4991
          CHANNELS 3 Zrotation Xrotation Yrotation
          End Site
          {
            OFFSET -0.08 -0.137448 9.77979
          }
        }
      }
    }
  }
  JOINT Spine
  {
    OFFSET 0 11.8905 0
    CHANNELS 3 Zrotation Xrotation Yrotation
    JOINT Spine1
    {
      OFFSET 0 25.6574 0.127663
      CHANNELS 3 Zrotation Xrotation Yrotation
      JOINT HEad
      {
        OFFSET 0 8.73416 0.011341
        CHANNELS 3 Zrotation Xrotation Yrotation
        End Site
        {
          OFFSET -0.29 12.7742 2.51395
        }
      }
      JOINT LeftShoulder1
      {
        OFFSET 8.99 -0.362252 -0.22
        CHANNELS 3 Zrotation Xrotation Yrotation
        JOINT LeftArm
        {
          OFFSET 10.2827 -0.00338 0.322123
          CHANNELS 3 Zrotation Xrotation Yrotation
          JOINT LeftForeArm
          {
            OFFSET 32.7669 0.099144 -1.42434
            CHANNELS 3 Zrotation Xrotation Yrotation
            JOINT LeftHand
            {
              OFFSET 27.5643 0.085362 1.02216
              CHANNELS 3 Zrotation Xrotation Yrotation
              End Site
              {
                OFFSET 16.7443 -0.6 1.50291
              }
            }
          }
        }
      }
      JOINT RightShoulder
      {
        OFFSET -8.99 -0.362252 -0.22
        CHANNELS 3 Zrotation Xrotation Yrotation
        JOINT RightArm
        {
          OFFSET -10.2827 -0.00338 0.322123
          CHANNELS 3 Zrotation Xrotation Yrotation
          JOINT RightForeArm
          {
            OFFSET -32.8971 0.099144 -1.42434
            CHANNELS 3 Zrotation Xrotation Yrotation
            JOINT RightHand
            {
              OFFSET -27.4921 0.085362 1.02216
              CHANNELS 3 Zrotation Xrotation Yrotation
              End Site
              {
                OFFSET -16.6312 -0.6 1.50291
              }
            }
          }
        }
      }
    }
  }
}
MOTION
Frames:	9
Frame Time:	0.0166667
0	103.884	0	-0.227657	1.05056	164.536	-5.02878	-0.175635	-19.2112	4.99425	12.0324	-29.3707	-4.5941	-15.7226	-12.8304	1.43E-14	3.18E-14	0	-0.622462	-2.63152	-22.0785	0.631687	13.0654	2.54337	1.82544	-9.5894	-9.11554	4.62E-02	5.34E-04	6.63E-01	-0.464098	-2.90082	-0.136895	-0.936971	-5.79765	-0.298131	5.54321	10.5201	69.6444	3.98E-16	-1.59E-15	0.00E+00	0.211836	-12.2434	-9.3352	-2.93173	9.65064	-10.233	3.77287	11.2966	3.7874	3.98E-16	-1.59E-15	0	8.4692	-4.48198	5.55995	2.35901	12.2337	-5.4295	-3.68E+00	1.23E+01	-3.66E+00
-0.011	103.882	0.036	-0.216471	1.07986	164.562	-5.031	-0.174048	-19.2189	4.99776	12.0606	-29.3919	-4.67638	-15.726	-12.8236	1.27E-14	3.30E-14	-3.18E-15	-0.625421	-2.63793	-22.0352	0.630369	13.1032	2.50144	1.82975	-9.58777	-9.1888	4.62E-02	5.34E-04	6.63E-01	-0.460201	-2.90478	-0.160167	-0.930361	-5.80538	-0.344599	5.61174	10.5476	69.0612	7.95E-16	0.00E+00	-6.36E-15	0.201165	-12.1931	-9.30513	-2.91623	9.64831	-10.2316	3.79021	11.2797	3.80992	7.95E-16	0	-6.36E-15	8.41592	-4.46296	5.65915	2.35715	12.3189	-5.42809	-3.67E+00	1.23E+01	-3.66E+00
-0.013	103.88	0.082	-0.206936	1.10863	164.587	-5.03333	-0.178377	-19.2384	4.99907	12.0942	-29.4037	-4.74037	-15.7278	-12.8086	1.43E-14	2.82E-14	6.36E-15	-0.606033	-2.65725	-21.9854	0.598829	13.1471	2.46819	1.83598	-9.57942	-9.13617	4.62E-02	5.34E-04	6.63E-01	-0.459498	-2.90932	-0.186535	-0.928006	-5.81425	-0.397382	5.66179	10.6084	68.2815	-3.98E-16	0.00E+00	0.00E+00	0.191423	-12.1458	-9.25039	-2.8956	9.67212	-10.2471	3.7888	11.2837	3.81314	-3.98E-16	0	0	8.36531	-4.45768	5.75908	2.34425	12.3832	-5.42243	-3.67E+00	1.23E+01	-3.65E+00
-0.015	103.879	0.125	-0.196328	1.14259	164.616	-5.04907	-0.174861	-19.2621	5.01123	12.1269	-29.4151	-4.77685	-15.7317	-12.7381	1.59E-14	3.06E-14	6.36E-15	-0.588886	-2.66756	-21.9617	0.572484	13.1847	2.44966	1.8392	-9.57035	-9.14213	4.62E-02	5.34E-04	6.63E-01	-0.460049	-2.91376	-0.213979	-0.930985	-5.8229	-0.452453	5.6929	10.7031	67.1942	-8.83E-32	1.59E-15	3.18E-15	0.194254	-12.0883	-9.19392	-2.8827	9.68364	-10.2702	3.78896	11.2895	3.8018	-8.83E-32	1.59E-15	3.18E-15	8.32133	-4.45094	5.85403	2.33297	12.43	-5.41757	-3.68E+00	1.23E+01	-3.63E+00
-0.015	103.878	0.161	-0.186466	1.17139	164.651	-5.07275	-0.166496	-19.2644	5.03867	12.1541	-29.4466	-4.80784	-15.7304	-12.7458	1.51E-14	2.84E-14	6.36E-15	-0.580977	-2.67117	-21.9641	0.562226	13.2168	2.44181	1.83522	-9.56437	-9.19039	4.62E-02	5.34E-04	6.63E-01	-0.459836	-2.9185	-0.240663	-0.933801	-5.83216	-0.506003	5.68025	10.8126	65.7567	0.00E+00	0.00E+00	6.36E-15	0.179403	-12.0379	-9.15218	-2.8661	9.67819	-10.2844	3.81033	11.2831	3.80508	0	0	6.36E-15	8.28962	-4.44393	5.94801	2.31242	12.4658	-5.4091	-3.69E+00	1.23E+01	-3.63E+00
-0.016	103.88	0.189	-0.174782	1.19169	164.691	-5.09757	-0.154328	-19.2686	5.06984	12.1738	-29.4747	-4.82564	-15.7313	-12.7158	1.59E-14	3.20E-14	6.36E-15	-0.576025	-2.67054	-21.9916	0.556714	13.2424	2.45264	1.83393	-9.55553	-9.19367	4.62E-02	5.34E-04	6.63E-01	-0.457569	-2.92533	-0.268011	-0.930696	-5.84561	-0.560748	5.62279	10.9242	63.9725	-1.77E-31	3.18E-15	3.18E-15	0.146891	-12.0278	-9.11649	-2.85902	9.66979	-10.2808	3.8339	11.2705	3.80787	-1.77E-31	3.18E-15	3.18E-15	8.26809	-4.47799	6.03636	2.27601	12.5287	-5.3941	-3.68E+00	1.23E+01	-3.65E+00
-0.017	103.883	0.201	-0.164279	1.20993	164.728	-5.11278	-0.138697	-19.2734	5.08999	12.1854	-29.503	-4.837	-15.7343	-12.6586	1.43E-14	3.00E-14	9.54E-15	-0.567922	-2.66723	-22.0262	0.550899	13.2569	2.47212	1.83208	-9.54814	-9.2983	4.62E-02	5.34E-04	6.63E-01	-0.452953	-2.93332	-0.294973	-0.922879	-5.86138	-0.614611	5.53988	10.9841	61.9153	3.98E-16	-3.18E-15	-3.18E-15	0.102249	-12.047	-9.07647	-2.85683	9.66828	-10.2749	3.82708	11.2733	3.8229	3.98E-16	-3.18E-15	-3.18E-15	8.26597	-4.55093	6.1311	2.22078	12.607	-5.37149	-3.68E+00	1.23E+01	-3.68E+00
-0.017	103.886	0.22	-0.156677	1.23079	164.755	-5.12664	-0.121568	-19.2749	5.09853	12.1971	-29.512	-4.8518	-15.7349	-12.6613	1.35E-14	2.84E-14	6.36E-15	-0.574114	-2.6445	-22.0556	0.545769	13.2635	2.49115	1.83691	-9.53124	-9.19218	4.62E-02	5.34E-04	6.63E-01	-0.447099	-2.94036	-0.320346	-0.912499	-5.87529	-0.665217	5.42283	10.9878	59.6905	7.95E-16	-1.59E-15	6.36E-15	0.0349572	-12.0832	-9.03005	-2.84325	9.67195	-10.2706	3.79627	11.2709	3.84098	7.95E-16	-1.59E-15	6.36E-15	8.25982	-4.66179	6.21952	2.1615	12.6921	-5.34722	-3.67E+00	1.23E+01	-3.69E+00
-0.016	103.889	0.207	-0.155854	1.25445	164.777	-5.13572	-0.10522	-19.2658	5.09518	12.2038	-29.5343	-4.8546	-15.7373	-12.6589	1.43E-14	3.06E-14	3.18E-15	-0.568401	-2.62995	-22.0677	0.54491	13.2637	2.49381	1.83264	-9.53551	-9.39032	4.62E-02	5.34E-04	6.63E-01	-0.442566	-2.94623	-0.34357	-0.904654	-5.88687	-0.711575	5.26446	10.9572	57.3357	-3.98E-16	-1.59E-15	0.00E+00	-0.0307933	-12.1336	-8.98203	-2.84445	9.69862	-10.2666	3.76406	11.2665	3.86138	-3.98E-16	-1.59E-15	0	8.22042	-4.76172	6.29604	2.13751	12.756	-5.3372	-3.65E+00	1.23E+01	-3.67E+00
